<?xml version="1.0" encoding="UTF-8"?>
<svg id="Layer_2" data-name="Layer 2" xmlns="http://www.w3.org/2000/svg" xmlns:xlink="http://www.w3.org/1999/xlink" viewBox="0 0 116.05 93.08">
  <defs>
    <style>
      .cls-1 {
        fill: #4c0000;
        opacity: 0;
      }

      .cls-2 {
        fill: #291111;
        opacity: .69;
      }

      .cls-3 {
        fill: url(#linear-gradient-15);
      }

      .cls-4 {
        fill: #2d0f0f;
        opacity: .62;
      }

      .cls-5 {
        fill: url(#linear-gradient-2);
      }

      .cls-6 {
        fill: #340b0b;
        opacity: .46;
      }

      .cls-7 {
        fill: url(#linear-gradient-10);
      }

      .cls-8 {
        fill: url(#linear-gradient-12);
      }

      .cls-9 {
        fill: #420505;
        opacity: .19;
      }

      .cls-10 {
        fill: #271212;
        opacity: .73;
      }

      .cls-11 {
        fill: url(#linear-gradient-4);
      }

      .cls-12 {
        fill: #310d0d;
        opacity: .54;
      }

      .cls-13 {
        fill: #3e0606;
        opacity: .27;
      }

      .cls-14 {
        fill: url(#linear-gradient-3);
      }

      .cls-15 {
        fill: #440404;
        opacity: .15;
      }

      .cls-16 {
        fill: url(#linear-gradient-5);
      }

      .cls-17 {
        fill: #4a0101;
        opacity: .04;
      }

      .cls-18 {
        isolation: isolate;
      }

      .cls-19 {
        fill: url(#linear-gradient-8);
      }

      .cls-20 {
        fill: #1f1515;
        opacity: .88;
      }

      .cls-21 {
        fill: #330c0c;
        opacity: .5;
      }

      .cls-22 {
        fill: url(#linear-gradient-14);
      }

      .cls-23 {
        fill: #360a0a;
        opacity: .42;
      }

      .cls-24 {
        fill: url(#linear-gradient-17);
      }

      .cls-25 {
        fill: url(#linear-gradient-7);
      }

      .cls-26 {
        fill: url(#linear-gradient-9);
      }

      .cls-27 {
        fill: #191818;
      }

      .cls-28 {
        fill: #1d1616;
        opacity: .92;
      }

      .cls-29 {
        fill: #400606;
        opacity: .23;
      }

      .cls-30 {
        fill: url(#linear-gradient-11);
      }

      .cls-31 {
        fill: #3a0808;
        opacity: .35;
      }

      .cls-32 {
        opacity: .35;
      }

      .cls-33 {
        fill: url(#linear-gradient-6);
      }

      .cls-34 {
        fill: #3c0707;
        opacity: .31;
      }

      .cls-35 {
        fill: #c9c7c7;
      }

      .cls-36 {
        fill: #1b1717;
        opacity: .96;
      }

      .cls-37 {
        fill: #460303;
        opacity: .12;
      }

      .cls-38 {
        fill: #afb6e5;
      }

      .cls-39 {
        fill: #231313;
        opacity: .81;
      }

      .cls-40 {
        opacity: .19;
      }

      .cls-41 {
        fill: url(#linear-gradient-13);
        opacity: .42;
      }

      .cls-42 {
        fill: url(#linear-gradient-16);
      }

      .cls-43 {
        fill: #2b1010;
        opacity: .65;
      }

      .cls-44 {
        fill: url(#linear-gradient);
      }

      .cls-45 {
        fill: #480202;
        opacity: .08;
      }

      .cls-46 {
        fill: #9d9d9d;
      }

      .cls-47 {
        fill: #380909;
        opacity: .38;
      }

      .cls-48 {
        fill: #251212;
        opacity: .77;
      }

      .cls-49 {
        fill: #2f0e0e;
        opacity: .58;
      }

      .cls-50 {
        fill: #211414;
        opacity: .85;
      }
    </style>
    <linearGradient id="linear-gradient" x1="-8112.72" y1="56.98" x2="-8169.49" y2="63.7" gradientTransform="translate(-8092.8) rotate(-180) scale(1 -1)" gradientUnits="userSpaceOnUse">
      <stop offset="0" stop-color="#727272"/>
      <stop offset="1" stop-color="#bababa"/>
    </linearGradient>
    <linearGradient id="linear-gradient-2" x1="-8143.51" y1="37.55" x2="-8152.54" y2="76.98" gradientTransform="translate(-8092.8) rotate(-180) scale(1 -1)" gradientUnits="userSpaceOnUse">
      <stop offset="0" stop-color="#f7f7f7"/>
      <stop offset="1" stop-color="#e4e4e4"/>
    </linearGradient>
    <linearGradient id="linear-gradient-3" x1="-13003.29" y1="4265.75" x2="-12971.33" y2="4240.39" gradientTransform="translate(-5515.23 -1758.02) rotate(-180) scale(.43 -.43)" gradientUnits="userSpaceOnUse">
      <stop offset="0" stop-color="#0087c5"/>
      <stop offset=".31" stop-color="#0f60a5"/>
      <stop offset=".63" stop-color="#1f3c88"/>
      <stop offset="1" stop-color="#1f3c88"/>
    </linearGradient>
    <linearGradient id="linear-gradient-4" x1="-12965.71" y1="4243.25" x2="-12974.01" y2="4269.93" gradientTransform="translate(-5515.23 -1758.02) rotate(-180) scale(.43 -.43)" gradientUnits="userSpaceOnUse">
      <stop offset="0" stop-color="#ffac06"/>
      <stop offset="1" stop-color="#ff7c0a"/>
    </linearGradient>
    <linearGradient id="linear-gradient-5" x1="-12983.17" y1="4249.42" x2="-12989.23" y2="4268.88" gradientTransform="translate(-5515.23 -1758.02) rotate(-180) scale(.43 -.43)" gradientUnits="userSpaceOnUse">
      <stop offset="0" stop-color="#dd2f2f"/>
      <stop offset="1" stop-color="#ff6757"/>
    </linearGradient>
    <linearGradient id="linear-gradient-6" x1="-8135" y1="82.78" x2="-8107.24" y2="67.43" xlink:href="#linear-gradient"/>
    <linearGradient id="linear-gradient-7" x1="50.95" y1="45.74" x2="17.29" y2="46.99" gradientUnits="userSpaceOnUse">
      <stop offset="0" stop-color="#b76000"/>
      <stop offset="1" stop-color="#ffac00"/>
    </linearGradient>
    <linearGradient id="linear-gradient-8" x1="26.59" y1="59.58" x2="65.03" y2="53.08" gradientUnits="userSpaceOnUse">
      <stop offset="0" stop-color="#f6f6f6"/>
      <stop offset="1" stop-color="#cbcbcb"/>
    </linearGradient>
    <linearGradient id="linear-gradient-9" x1="10.18" y1="49.72" x2="63.1" y2="49.72" gradientUnits="userSpaceOnUse">
      <stop offset="0" stop-color="#afb6e5"/>
      <stop offset=".14" stop-color="#b5bce8"/>
      <stop offset=".35" stop-color="#c7cdf0"/>
      <stop offset=".58" stop-color="#e5e9ff"/>
      <stop offset=".86" stop-color="#f4f6ff"/>
      <stop offset="1" stop-color="#fff"/>
    </linearGradient>
    <linearGradient id="linear-gradient-10" x1="52.68" y1="67.05" x2="69.09" y2="67.05" xlink:href="#linear-gradient-9"/>
    <linearGradient id="linear-gradient-11" x1="58.87" y1="65.71" x2="95.17" y2="86.22" gradientUnits="userSpaceOnUse">
      <stop offset="0" stop-color="#fff"/>
      <stop offset=".12" stop-color="#f5c49e"/>
      <stop offset=".23" stop-color="#ec8c41"/>
      <stop offset=".28" stop-color="#e9761c"/>
      <stop offset=".38" stop-color="#e07019"/>
      <stop offset=".55" stop-color="#c86114"/>
      <stop offset=".77" stop-color="#a0480b"/>
      <stop offset="1" stop-color="#6e2800"/>
    </linearGradient>
    <linearGradient id="linear-gradient-12" x1="88.03" y1="81.24" x2="93.42" y2="88.24" gradientUnits="userSpaceOnUse">
      <stop offset=".28" stop-color="#e9761c"/>
      <stop offset=".38" stop-color="#e07019"/>
      <stop offset=".55" stop-color="#c86114"/>
      <stop offset=".77" stop-color="#a0480b"/>
      <stop offset="1" stop-color="#6e2800"/>
    </linearGradient>
    <linearGradient id="linear-gradient-13" x1="14.93" y1="51.1" x2="58.32" y2="51.1" gradientUnits="userSpaceOnUse">
      <stop offset="0" stop-color="#f6f6f6"/>
      <stop offset="1" stop-color="#8f8f8f"/>
    </linearGradient>
    <linearGradient id="linear-gradient-14" x1="72.42" y1="30.5" x2="88.9" y2="30.5" gradientUnits="userSpaceOnUse">
      <stop offset="0" stop-color="#ff9e6e"/>
      <stop offset=".12" stop-color="#ffe585"/>
      <stop offset=".2" stop-color="#ffeca8"/>
      <stop offset=".23" stop-color="#ffefb5"/>
      <stop offset=".37" stop-color="#ffe585"/>
      <stop offset=".44" stop-color="#ffc179"/>
      <stop offset=".5" stop-color="#ff9e6e"/>
      <stop offset=".68" stop-color="#f68e59"/>
      <stop offset=".73" stop-color="#f6935c"/>
      <stop offset=".79" stop-color="#f9a165"/>
      <stop offset=".85" stop-color="#feba75"/>
      <stop offset=".86" stop-color="#ffbe78"/>
      <stop offset=".97" stop-color="#ff9e6e"/>
    </linearGradient>
    <linearGradient id="linear-gradient-15" y1="10.78" y2="10.78" xlink:href="#linear-gradient-14"/>
    <linearGradient id="linear-gradient-16" x1="92.7" y1="40.62" x2="109.18" y2="40.62" xlink:href="#linear-gradient-14"/>
    <linearGradient id="linear-gradient-17" x1="51.23" y1="20.16" x2="67.71" y2="20.16" xlink:href="#linear-gradient-14"/>
  </defs>
  <g id="Layer_1-2" data-name="Layer 1">
    <g>
      <g>
        <g class="cls-40">
          <path class="cls-1" d="M74.19,77.23c5.48,6.03,18.76,7.33,29.67,2.89,10.91-4.44,15.31-12.93,9.83-18.96-5.48-6.03-18.76-7.33-29.67-2.89-10.91,4.44-15.31,12.93-9.83,18.96Z"/>
          <path class="cls-17" d="M73.29,77.67c5.34,5.88,18.28,7.14,28.9,2.81,10.63-4.32,14.91-12.59,9.58-18.47-5.34-5.88-18.28-7.14-28.9-2.81-10.63,4.32-14.91,12.59-9.58,18.47Z"/>
          <path class="cls-45" d="M72.39,78.11c5.2,5.72,17.79,6.95,28.14,2.74,10.35-4.21,14.52-12.26,9.32-17.98-5.2-5.72-17.79-6.95-28.14-2.74-10.35,4.21-14.52,12.26-9.32,17.98Z"/>
          <path class="cls-37" d="M71.49,78.56c5.05,5.57,17.31,6.76,27.38,2.66,10.06-4.1,14.13-11.93,9.07-17.5-5.05-5.57-17.31-6.76-27.38-2.66-10.06,4.1-14.13,11.93-9.07,17.5Z"/>
          <path class="cls-15" d="M70.59,79c4.91,5.41,16.83,6.57,26.61,2.59,9.78-3.98,13.73-11.6,8.82-17.01-4.91-5.41-16.83-6.57-26.61-2.59-9.78,3.98-13.73,11.6-8.82,17.01Z"/>
          <path class="cls-9" d="M69.69,79.45c4.77,5.26,16.34,6.38,25.85,2.52,9.5-3.87,13.34-11.26,8.56-16.52-4.77-5.26-16.34-6.38-25.85-2.52-9.5,3.87-13.34,11.26-8.56,16.52Z"/>
          <path class="cls-29" d="M68.79,79.89c4.63,5.1,15.86,6.19,25.08,2.44,9.22-3.75,12.94-10.93,8.31-16.03-4.63-5.1-15.86-6.19-25.08-2.44-9.22,3.75-12.94,10.93-8.31,16.03Z"/>
          <path class="cls-13" d="M67.89,80.34c4.49,4.95,15.38,6.01,24.32,2.37,8.94-3.64,12.55-10.6,8.06-15.54-4.49-4.95-15.38-6.01-24.32-2.37-8.94,3.64-12.55,10.6-8.06,15.54Z"/>
          <path class="cls-34" d="M66.99,80.78c4.35,4.79,14.9,5.82,23.55,2.29,8.66-3.52,12.15-10.26,7.8-15.05-4.35-4.79-14.9-5.82-23.55-2.29-8.66,3.52-12.15,10.26-7.8,15.05Z"/>
          <path class="cls-31" d="M66.09,81.22c4.21,4.63,14.41,5.63,22.79,2.22,8.38-3.41,11.76-9.93,7.55-14.56-4.21-4.63-14.41-5.63-22.79-2.22-8.38,3.41-11.76,9.93-7.55,14.56Z"/>
          <path class="cls-47" d="M65.19,81.67c4.07,4.48,13.93,5.44,22.03,2.14,8.1-3.3,11.37-9.6,7.3-14.08-4.07-4.48-13.93-5.44-22.03-2.14-8.1,3.3-11.37,9.6-7.3,14.08Z"/>
          <path class="cls-23" d="M64.29,82.11c3.93,4.32,13.45,5.25,21.26,2.07,7.82-3.18,10.97-9.26,7.05-13.59-3.93-4.32-13.45-5.25-21.26-2.07-7.82,3.18-10.97,9.26-7.05,13.59Z"/>
          <path class="cls-6" d="M63.39,82.56c3.78,4.17,12.96,5.06,20.5,2,7.54-3.07,10.58-8.93,6.79-13.1-3.78-4.17-12.96-5.06-20.5-2-7.54,3.07-10.58,8.93-6.79,13.1Z"/>
          <path class="cls-21" d="M62.49,83c3.64,4.01,12.48,4.87,19.73,1.92,7.25-2.95,10.18-8.6,6.54-12.61-3.64-4.01-12.48-4.87-19.73-1.92-7.25,2.95-10.18,8.6-6.54,12.61Z"/>
          <path class="cls-12" d="M61.59,83.45c3.5,3.86,12,4.68,18.97,1.85,6.97-2.84,9.79-8.27,6.29-12.12-3.5-3.86-12-4.68-18.97-1.85-6.97,2.84-9.79,8.27-6.29,12.12Z"/>
          <path class="cls-49" d="M60.69,83.89c3.36,3.7,11.51,4.5,18.21,1.77,6.69-2.72,9.39-7.93,6.03-11.63-3.36-3.7-11.51-4.5-18.21-1.77-6.69,2.72-9.39,7.93-6.03,11.63Z"/>
          <path class="cls-4" d="M59.79,84.33c3.22,3.55,11.03,4.31,17.44,1.7,6.41-2.61,9-7.6,5.78-11.15-3.22-3.55-11.03-4.31-17.44-1.7-6.41,2.61-9,7.6-5.78,11.15Z"/>
          <path class="cls-43" d="M58.89,84.78c3.08,3.39,10.55,4.12,16.68,1.62,6.13-2.49,8.6-7.27,5.53-10.66-3.08-3.39-10.55-4.12-16.68-1.62-6.13,2.49-8.6,7.27-5.53,10.66Z"/>
          <path class="cls-2" d="M57.99,85.22c2.94,3.24,10.06,3.93,15.91,1.55,5.85-2.38,8.21-6.93,5.27-10.17-2.94-3.24-10.06-3.93-15.91-1.55-5.85,2.38-8.21,6.93-5.27,10.17Z"/>
          <path class="cls-10" d="M57.09,85.67c2.8,3.08,9.58,3.74,15.15,1.47,5.57-2.27,7.82-6.6,5.02-9.68-2.8-3.08-9.58-3.74-15.15-1.47-5.57,2.27-7.82,6.6-5.02,9.68Z"/>
          <path class="cls-48" d="M56.19,86.11c2.66,2.93,9.1,3.55,14.38,1.4,5.29-2.15,7.42-6.27,4.77-9.19-2.66-2.93-9.1-3.55-14.38-1.4-5.29,2.15-7.42,6.27-4.77,9.19Z"/>
          <path class="cls-39" d="M55.29,86.56c2.51,2.77,8.61,3.36,13.62,1.33,5.01-2.04,7.03-5.93,4.51-8.7-2.51-2.77-8.61-3.36-13.62-1.33-5.01,2.04-7.03,5.93-4.51,8.7Z"/>
          <path class="cls-50" d="M54.39,87c2.37,2.61,8.13,3.17,12.86,1.25,4.73-1.92,6.63-5.6,4.26-8.22-2.37-2.61-8.13-3.17-12.86-1.25-4.73,1.92-6.63,5.6-4.26,8.22Z"/>
          <path class="cls-20" d="M53.49,87.44c2.23,2.46,7.65,2.99,12.09,1.18,4.45-1.81,6.24-5.27,4.01-7.73-2.23-2.46-7.65-2.99-12.09-1.18-4.45,1.81-6.24,5.27-4.01,7.73Z"/>
          <path class="cls-28" d="M52.59,87.89c2.09,2.3,7.16,2.8,11.33,1.1,4.16-1.69,5.84-4.94,3.75-7.24-2.09-2.3-7.16-2.8-11.33-1.1-4.16,1.69-5.84,4.94-3.75,7.24Z"/>
          <path class="cls-36" d="M51.69,88.33c1.95,2.15,6.68,2.61,10.56,1.03,3.88-1.58,5.45-4.6,3.5-6.75-1.95-2.15-6.68-2.61-10.56-1.03-3.88,1.58-5.45,4.6-3.5,6.75Z"/>
          <path class="cls-27" d="M50.79,88.78c1.81,1.99,6.2,2.42,9.8.95,3.6-1.47,5.06-4.27,3.25-6.26-1.81-1.99-6.2-2.42-9.8-.95-3.6,1.47-5.06,4.27-3.25,6.26Z"/>
        </g>
        <g class="cls-32">
          <path class="cls-1" d="M21.24,76.84c5.48,6.03,18.76,7.33,29.67,2.89,10.91-4.44,15.31-12.93,9.83-18.96-5.48-6.03-18.76-7.33-29.67-2.89-10.91,4.44-15.31,12.93-9.83,18.96Z"/>
          <path class="cls-17" d="M21.75,76.64c5.34,5.88,18.28,7.14,28.9,2.81,10.63-4.32,14.91-12.59,9.58-18.47-5.34-5.88-18.28-7.14-28.9-2.81-10.63,4.32-14.91,12.59-9.58,18.47Z"/>
          <path class="cls-45" d="M22.26,76.43c5.2,5.72,17.79,6.95,28.14,2.74,10.35-4.21,14.52-12.26,9.32-17.98-5.2-5.72-17.79-6.95-28.14-2.74-10.35,4.21-14.52,12.26-9.32,17.98Z"/>
          <path class="cls-37" d="M22.77,76.22c5.05,5.57,17.31,6.76,27.38,2.66,10.06-4.1,14.13-11.93,9.07-17.5-5.05-5.57-17.31-6.76-27.38-2.66-10.06,4.1-14.13,11.93-9.07,17.5Z"/>
          <path class="cls-15" d="M23.28,76.02c4.91,5.41,16.83,6.57,26.61,2.59,9.78-3.98,13.73-11.6,8.82-17.01-4.91-5.41-16.83-6.57-26.61-2.59-9.78,3.98-13.73,11.6-8.82,17.01Z"/>
          <path class="cls-9" d="M23.79,75.81c4.77,5.26,16.34,6.38,25.85,2.52,9.5-3.87,13.34-11.26,8.56-16.52-4.77-5.26-16.34-6.38-25.85-2.52-9.5,3.87-13.34,11.26-8.56,16.52Z"/>
          <path class="cls-29" d="M24.3,75.6c4.63,5.1,15.86,6.19,25.08,2.44,9.22-3.75,12.94-10.93,8.31-16.03-4.63-5.1-15.86-6.19-25.08-2.44-9.22,3.75-12.94,10.93-8.31,16.03Z"/>
          <path class="cls-13" d="M24.81,75.4c4.49,4.95,15.38,6.01,24.32,2.37,8.94-3.64,12.55-10.6,8.06-15.54-4.49-4.95-15.38-6.01-24.32-2.37-8.94,3.64-12.55,10.6-8.06,15.54Z"/>
          <path class="cls-34" d="M25.31,75.19c4.35,4.79,14.9,5.82,23.55,2.29,8.66-3.52,12.15-10.26,7.8-15.05-4.35-4.79-14.9-5.82-23.55-2.29-8.66,3.52-12.15,10.26-7.8,15.05Z"/>
          <path class="cls-31" d="M25.82,74.98c4.21,4.63,14.41,5.63,22.79,2.22,8.38-3.41,11.76-9.93,7.55-14.56-4.21-4.63-14.41-5.63-22.79-2.22-8.38,3.41-11.76,9.93-7.55,14.56Z"/>
          <path class="cls-47" d="M26.33,74.77c4.07,4.48,13.93,5.44,22.03,2.14,8.1-3.3,11.37-9.6,7.3-14.08-4.07-4.48-13.93-5.44-22.03-2.14-8.1,3.3-11.37,9.6-7.3,14.08Z"/>
          <path class="cls-23" d="M26.84,74.57c3.93,4.32,13.45,5.25,21.26,2.07,7.82-3.18,10.97-9.26,7.05-13.59-3.93-4.32-13.45-5.25-21.26-2.07-7.82,3.18-10.97,9.26-7.05,13.59Z"/>
          <path class="cls-6" d="M27.35,74.36c3.78,4.17,12.96,5.06,20.5,2,7.54-3.07,10.58-8.93,6.79-13.1-3.78-4.17-12.96-5.06-20.5-2-7.54,3.07-10.58,8.93-6.79,13.1Z"/>
          <path class="cls-21" d="M27.86,74.15c3.64,4.01,12.48,4.87,19.73,1.92,7.25-2.95,10.18-8.6,6.54-12.61-3.64-4.01-12.48-4.87-19.73-1.92-7.25,2.95-10.18,8.6-6.54,12.61Z"/>
          <path class="cls-12" d="M28.37,73.95c3.5,3.86,12,4.68,18.97,1.85,6.97-2.84,9.79-8.27,6.29-12.12-3.5-3.86-12-4.68-18.97-1.85-6.97,2.84-9.79,8.27-6.29,12.12Z"/>
          <path class="cls-49" d="M28.88,73.74c3.36,3.7,11.51,4.5,18.21,1.77,6.69-2.72,9.39-7.93,6.03-11.63-3.36-3.7-11.51-4.5-18.21-1.77-6.69,2.72-9.39,7.93-6.03,11.63Z"/>
          <path class="cls-4" d="M29.38,73.53c3.22,3.55,11.03,4.31,17.44,1.7,6.41-2.61,9-7.6,5.78-11.15-3.22-3.55-11.03-4.31-17.44-1.7-6.41,2.61-9,7.6-5.78,11.15Z"/>
          <path class="cls-43" d="M29.89,73.33c3.08,3.39,10.55,4.12,16.68,1.62,6.13-2.49,8.6-7.27,5.53-10.66-3.08-3.39-10.55-4.12-16.68-1.62-6.13,2.49-8.6,7.27-5.53,10.66Z"/>
          <path class="cls-2" d="M30.4,73.12c2.94,3.24,10.06,3.93,15.91,1.55,5.85-2.38,8.21-6.93,5.27-10.17-2.94-3.24-10.06-3.93-15.91-1.55-5.85,2.38-8.21,6.93-5.27,10.17Z"/>
          <path class="cls-10" d="M30.91,72.91c2.8,3.08,9.58,3.74,15.15,1.47,5.57-2.27,7.82-6.6,5.02-9.68-2.8-3.08-9.58-3.74-15.15-1.47-5.57,2.27-7.82,6.6-5.02,9.68Z"/>
          <path class="cls-48" d="M31.42,72.7c2.66,2.93,9.1,3.55,14.38,1.4,5.29-2.15,7.42-6.27,4.77-9.19-2.66-2.93-9.1-3.55-14.38-1.4-5.29,2.15-7.42,6.27-4.77,9.19Z"/>
          <path class="cls-39" d="M31.93,72.5c2.51,2.77,8.61,3.36,13.62,1.33,5.01-2.04,7.03-5.93,4.51-8.7-2.51-2.77-8.61-3.36-13.62-1.33-5.01,2.04-7.03,5.93-4.51,8.7Z"/>
          <path class="cls-50" d="M32.44,72.29c2.37,2.61,8.13,3.17,12.86,1.25,4.73-1.92,6.63-5.6,4.26-8.22-2.37-2.61-8.13-3.17-12.86-1.25-4.73,1.92-6.63,5.6-4.26,8.22Z"/>
          <path class="cls-20" d="M32.95,72.08c2.23,2.46,7.65,2.99,12.09,1.18,4.45-1.81,6.24-5.27,4.01-7.73-2.23-2.46-7.65-2.99-12.09-1.18-4.45,1.81-6.24,5.27-4.01,7.73Z"/>
          <path class="cls-28" d="M33.45,71.88c2.09,2.3,7.16,2.8,11.33,1.1,4.16-1.69,5.84-4.94,3.75-7.24-2.09-2.3-7.16-2.8-11.33-1.1-4.16,1.69-5.84,4.94-3.75,7.24Z"/>
          <path class="cls-36" d="M33.96,71.67c1.95,2.15,6.68,2.61,10.56,1.03,3.88-1.58,5.45-4.6,3.5-6.75-1.95-2.15-6.68-2.61-10.56-1.03-3.88,1.58-5.45,4.6-3.5,6.75Z"/>
          <path class="cls-27" d="M34.47,71.46c1.81,1.99,6.2,2.42,9.8.95s5.06-4.27,3.25-6.26c-1.81-1.99-6.2-2.42-9.8-.95-3.6,1.47-5.06,4.27-3.25,6.26Z"/>
        </g>
        <g>
          <polygon class="cls-44" points="54.02 29.34 0 60.27 57.31 93.08 110.78 61.21 110.78 58.45 54.02 29.34"/>
          <polygon class="cls-5" points="54.02 26.58 0 57.51 57.31 90.31 110.78 58.45 54.02 26.58"/>
          <g>
            <path class="cls-14" d="M19.62,57.8c0,3.9,4.21,7.17,9.85,8l2.87-8,7.71,6.53c2.88-1.42,4.79-3.62,4.99-6.11.01-.14.02-.28.02-.42,0-.14,0-.27-.02-.41-.33-4.35-5.89-7.81-12.69-7.81-6.65,0-12.11,3.3-12.67,7.51-.03.23-.05.47-.05.71Z"/>
            <path class="cls-11" d="M19.62,57.8c0,3.9,4.21,7.17,9.85,8l2.87-8h-12.71Z"/>
            <path class="cls-16" d="M29.47,65.81c.92.14,1.88.21,2.87.21,2.9,0,5.57-.63,7.71-1.68l-7.71-6.53-2.87,8Z"/>
          </g>
          <g>
            <path class="cls-35" d="M40.46,44.15l15.51-8.54c.19-.1.2-.27.02-.37h0c-.17-.1-.47-.09-.66,0l-15.51,8.54c-.19.1-.2.27-.02.37h0c.17.1.47.09.66,0Z"/>
            <path class="cls-35" d="M43.03,45.61l15.51-8.54c.19-.1.2-.27.02-.37h0c-.17-.1-.47-.09-.66,0l-15.51,8.54c-.19.1-.2.27-.02.37h0c.17.1.47.09.66,0Z"/>
            <path class="cls-35" d="M45.61,47.06l15.51-8.54c.19-.1.2-.27.02-.37h0c-.17-.1-.47-.09-.66,0l-15.51,8.54c-.19.1-.2.27-.02.37h0c.17.1.47.09.66,0Z"/>
            <path class="cls-35" d="M48.19,48.51l15.51-8.54c.19-.1.2-.27.02-.37h0c-.17-.1-.47-.09-.66,0l-15.51,8.54c-.19.1-.2.27-.02.37h0c.17.1.47.09.66,0Z"/>
            <path class="cls-35" d="M60.35,44.68l5.92-3.26c.19-.1.2-.27.02-.37h0c-.17-.1-.47-.09-.66,0l-5.92,3.26c-.19.1-.2.27-.02.37h0c.17.1.47.09.66,0Z"/>
          </g>
          <g>
            <path class="cls-35" d="M69.31,60.08l15.51-8.54c.19-.1.2-.27.02-.37h0c-.17-.1-.47-.09-.66,0l-15.51,8.54c-.19.1-.2.27-.02.37h0c.17.1.47.09.66,0Z"/>
            <path class="cls-35" d="M71.88,61.53l15.51-8.54c.19-.1.2-.27.02-.37h0c-.17-.1-.47-.09-.66,0l-15.51,8.54c-.19.1-.2.27-.02.37h0c.17.1.47.09.66,0Z"/>
            <path class="cls-35" d="M74.46,62.98l15.51-8.54c.19-.1.2-.27.02-.37h0c-.17-.1-.47-.09-.66,0l-15.51,8.54c-.19.1-.2.27-.02.37h0c.17.1.47.09.66,0Z"/>
            <path class="cls-35" d="M77.04,64.43l15.51-8.54c.19-.1.2-.27.02-.37h0c-.17-.1-.47-.09-.66,0l-15.51,8.54c-.19.1-.2.27-.02.37h0c.17.1.47.09.66,0Z"/>
            <path class="cls-35" d="M89.2,60.6l5.92-3.26c.19-.1.2-.27.02-.37h0c-.17-.1-.47-.09-.66,0l-5.92,3.26c-.19.1-.2.27-.02.37h0c.17.1.47.09.66,0Z"/>
          </g>
          <g>
            <path class="cls-35" d="M44.61,74.78l15.51-8.54c.19-.1.2-.27.02-.37h0c-.17-.1-.47-.09-.66,0l-15.51,8.54c-.19.1-.2.27-.02.37h0c.17.1.47.09.66,0Z"/>
            <path class="cls-35" d="M47.19,76.23l15.51-8.54c.19-.1.2-.27.02-.37h0c-.17-.1-.47-.09-.66,0l-15.51,8.54c-.19.1-.2.27-.02.37h0c.17.1.47.09.66,0Z"/>
            <path class="cls-35" d="M49.77,77.68l15.51-8.54c.19-.1.2-.27.02-.37h0c-.17-.1-.47-.09-.66,0l-15.51,8.54c-.19.1-.2.27-.02.37h0c.17.1.47.09.66,0Z"/>
            <path class="cls-35" d="M52.34,79.14l15.51-8.54c.19-.1.2-.27.02-.37h0c-.17-.1-.47-.09-.66,0l-15.51,8.54c-.19.1-.2.27-.02.37h0c.17.1.47.09.66,0Z"/>
            <path class="cls-35" d="M64.51,75.31l5.92-3.26c.19-.1.2-.27.02-.37h0c-.17-.1-.47-.09-.66,0l-5.92,3.26c-.19.1-.2.27-.02.37h0c.17.1.47.09.66,0Z"/>
          </g>
          <polygon class="cls-33" points="57.31 90.31 57.31 93.08 0 60.27 0 57.51 57.31 90.31"/>
        </g>
        <g>
          <g>
            <path class="cls-25" d="M14.87,53.83c0-.1.02-.19.04-.29.02-.11.03-.22.05-.33.02-.1.04-.19.06-.29.02-.11.05-.21.08-.32.03-.1.05-.19.08-.29.03-.11.07-.21.1-.32.03-.09.07-.19.11-.28.04-.11.09-.22.14-.33.04-.09.08-.18.13-.28.05-.11.11-.22.17-.33.05-.09.1-.18.15-.26.08-.13.16-.26.24-.39.05-.08.1-.16.15-.23.1-.14.2-.28.31-.42.05-.07.1-.13.15-.2.02-.03.05-.06.08-.09.11-.14.23-.28.35-.42.03-.04.07-.08.1-.11.15-.16.3-.32.45-.47.03-.03.06-.06.09-.08.12-.12.25-.23.37-.35.1-.09.21-.18.31-.27.1-.08.2-.17.3-.25.11-.09.23-.18.34-.27.11-.08.21-.16.32-.24.12-.09.24-.17.37-.26.11-.08.23-.16.35-.23.13-.08.26-.17.4-.25.17-.1.33-.21.51-.31.33-.19.66-.37,1-.54.1-.05.2-.1.3-.15.27-.13.53-.26.81-.38.09-.04.18-.08.28-.12.36-.15.72-.3,1.09-.44.07-.02.13-.05.2-.07.31-.12.63-.23.94-.33.13-.04.26-.09.39-.13.18-.06.35-.11.53-.16.15-.04.3-.09.45-.13.18-.05.36-.1.54-.15.15-.04.3-.08.46-.12.18-.04.37-.09.56-.13.15-.03.31-.07.46-.1.19-.04.38-.08.57-.11.15-.03.29-.06.44-.08.41-.07.82-.14,1.23-.2.06,0,.12-.01.18-.02.36-.05.72-.09,1.09-.13.14-.01.28-.03.42-.04.23-.02.47-.04.7-.06.15-.01.3-.02.44-.03.24-.01.49-.03.73-.04.14,0,.28-.01.41-.02.21,0,.42,0,.64-.01.15,0,.3,0,.45,0,.23,0,.45,0,.68,0,.13,0,.27,0,.4,0,.21,0,.42.02.63.02.14,0,.29.01.43.02.23.01.45.03.67.05.13,0,.25.02.38.03.27.02.53.05.79.08.09,0,.17.02.26.03.35.04.7.08,1.04.13.06,0,.11.02.17.03.3.04.59.09.89.14.12.02.25.05.37.07.22.04.45.08.67.13.12.02.23.05.35.08.24.05.49.11.73.17.14.03.27.07.41.1.22.06.44.11.66.17.13.03.25.07.37.11.35.1.69.21,1.03.32.06.02.12.04.18.06.39.13.77.27,1.15.42.15.06.31.12.46.19.12.05.24.1.36.15.17.07.34.15.51.23.11.05.22.1.33.15.18.09.36.18.54.27.09.05.18.09.27.13.27.14.53.28.79.43,4.3,2.48,6.44,5.74,6.43,8.99v-4.89c.02-3.25-2.12-6.51-6.42-8.99-.26-.15-.52-.29-.79-.43-.09-.05-.18-.09-.27-.13-.18-.09-.36-.18-.54-.27-.11-.05-.22-.1-.33-.15-.17-.08-.34-.15-.51-.23-.12-.05-.24-.1-.36-.15-.12-.05-.23-.1-.35-.14-.04-.01-.07-.03-.11-.04-.38-.15-.76-.29-1.15-.42-.06-.02-.12-.04-.18-.06-.34-.11-.68-.22-1.03-.32-.06-.02-.11-.04-.17-.05-.07-.02-.13-.03-.2-.05-.22-.06-.44-.12-.66-.18-.13-.03-.27-.07-.4-.1-.24-.06-.49-.11-.73-.17-.09-.02-.18-.04-.27-.06-.02,0-.05,0-.07-.01-.22-.05-.45-.09-.68-.13-.12-.02-.24-.05-.37-.07-.29-.05-.59-.1-.89-.14-.05,0-.11-.02-.16-.03,0,0,0,0,0,0-.35-.05-.69-.09-1.04-.13-.08,0-.17-.02-.26-.02-.26-.03-.53-.06-.79-.08,0,0-.01,0-.02,0-.12-.01-.24-.02-.37-.02-.22-.02-.44-.03-.67-.05-.15,0-.29-.01-.44-.02-.21,0-.41-.02-.62-.02-.02,0-.03,0-.05,0-.12,0-.24,0-.35,0-.23,0-.45,0-.68,0-.15,0-.3,0-.45,0-.21,0-.42,0-.64.01-.04,0-.08,0-.12,0-.1,0-.2.01-.3.01-.24.01-.49.02-.73.04-.15,0-.29.02-.44.03-.23.02-.47.04-.7.06-.08,0-.16.01-.25.02-.06,0-.11.01-.17.02-.36.04-.73.08-1.09.13-.06,0-.12.01-.18.02-.41.06-.82.12-1.23.2-.04,0-.08.01-.12.02-.11.02-.22.04-.32.06-.19.04-.38.07-.57.11-.15.03-.31.07-.46.1-.19.04-.37.08-.56.13-.15.04-.31.08-.46.12-.18.05-.36.1-.54.15-.15.04-.3.09-.45.13-.18.05-.35.11-.53.16-.08.02-.16.05-.23.07-.06.02-.11.04-.16.06-.32.11-.63.22-.95.33-.06.02-.13.05-.2.07-.37.14-.73.29-1.09.44-.09.04-.18.08-.28.12-.27.12-.54.25-.81.38-.1.05-.2.1-.3.15-.34.17-.68.35-1,.54-.09.05-.18.1-.27.16-.08.05-.16.1-.24.15-.13.08-.27.17-.4.25-.12.08-.23.16-.35.24-.12.09-.25.17-.37.26-.11.08-.22.16-.32.24-.12.09-.23.18-.34.27-.1.08-.2.17-.3.25-.11.09-.21.18-.31.27-.04.04-.09.07-.13.11-.08.08-.16.16-.24.23-.03.03-.06.06-.09.08-.16.16-.31.31-.45.47-.03.04-.07.08-.1.11-.12.14-.24.28-.35.42-.02.03-.05.06-.07.09-.01.01-.02.03-.03.04-.04.05-.07.1-.11.16-.11.14-.21.28-.31.42-.05.08-.1.16-.15.23-.08.13-.16.26-.24.39-.02.04-.05.07-.07.11-.03.05-.05.11-.08.16-.06.11-.12.22-.17.33-.04.09-.09.18-.13.28-.05.11-.1.22-.14.33-.02.05-.04.1-.06.15-.02.04-.03.09-.04.13-.04.1-.07.21-.1.31-.03.1-.06.19-.08.29-.03.11-.05.21-.08.32-.01.06-.03.11-.04.17,0,.04-.01.08-.02.12-.02.11-.04.22-.05.33-.01.1-.03.19-.04.29-.01.11-.02.22-.02.33,0,.06-.01.13-.01.19,0,.06,0,.13,0,.19v4.89c-.01-.13,0-.26,0-.38,0-.11.01-.22.02-.33Z"/>
            <path class="cls-19" d="M63.08,50.26c0,.13-.02.27-.03.4-.01.12-.03.23-.04.35-.02.13-.04.26-.06.4-.02.12-.05.23-.07.35-.03.13-.06.26-.09.39-.03.12-.07.23-.1.35-.04.13-.08.26-.13.38-.04.11-.08.23-.13.34-.05.13-.11.27-.17.4-.05.11-.1.22-.16.33-.06.13-.13.26-.2.4-.06.11-.12.21-.18.32-.09.16-.19.31-.29.47-.06.09-.12.19-.18.28-.12.17-.24.34-.37.51-.06.08-.12.16-.18.24-.03.04-.06.07-.09.11-.14.17-.28.34-.43.51-.04.05-.08.09-.12.14-.18.19-.36.39-.55.57-.03.03-.07.07-.11.1-.15.14-.3.28-.45.42-.12.11-.25.22-.38.33-.12.1-.24.2-.36.3-.13.11-.27.22-.41.32-.13.1-.26.2-.39.29-.15.11-.3.21-.45.31-.14.1-.28.19-.42.29-.16.1-.32.2-.48.3-.2.13-.4.25-.61.37-.4.23-.8.45-1.22.66-.12.06-.24.12-.36.18-.32.16-.65.31-.98.46-.11.05-.22.1-.33.15-.43.19-.87.37-1.32.54-.08.03-.16.06-.24.09-.38.14-.76.27-1.15.4-.16.05-.32.1-.48.16-.21.07-.43.13-.64.2-.18.05-.36.11-.55.16-.22.06-.44.12-.66.18-.18.05-.37.09-.56.14-.22.05-.45.11-.67.16-.19.04-.37.08-.56.12-.23.05-.46.09-.69.14-.18.03-.35.07-.53.1-.5.09-.99.17-1.5.24-.07,0-.14.02-.21.03-.44.06-.88.11-1.32.16-.17.02-.34.03-.5.05-.28.03-.57.05-.85.07-.18.01-.36.03-.54.04-.3.02-.59.03-.89.04-.17,0-.34.02-.5.02-.26,0-.51.01-.77.01-.18,0-.36,0-.55,0-.27,0-.55,0-.82,0-.16,0-.33,0-.49,0-.25,0-.5-.02-.75-.03-.18,0-.35-.01-.53-.02-.27-.01-.55-.04-.82-.06-.15-.01-.31-.02-.46-.03-.33-.03-.65-.06-.98-.09-.1-.01-.2-.02-.3-.03-.42-.05-.84-.1-1.26-.16-.07-.01-.15-.02-.22-.03-.35-.05-.71-.11-1.06-.17-.15-.03-.3-.06-.45-.08-.27-.05-.55-.1-.82-.16-.14-.03-.28-.06-.42-.09-.3-.06-.59-.13-.89-.2-.16-.04-.33-.08-.49-.12-.27-.07-.54-.14-.8-.21-.15-.04-.3-.09-.45-.13-.42-.12-.84-.25-1.25-.39-.07-.02-.15-.05-.22-.07-.47-.16-.94-.33-1.4-.51-.19-.07-.37-.15-.56-.22-.15-.06-.29-.12-.44-.18-.21-.09-.41-.18-.62-.28-.13-.06-.27-.12-.4-.18-.22-.11-.44-.22-.66-.33-.11-.05-.22-.11-.32-.16-.32-.17-.64-.34-.95-.52-5.22-3.01-7.82-6.97-7.81-10.91v4.89c-.03,3.95,2.58,7.9,7.8,10.91.31.18.63.35.95.52.11.06.22.11.33.16.22.11.44.22.66.33.13.06.27.12.4.18.2.09.41.19.61.27.15.06.29.12.44.18.14.06.28.12.42.17.04.02.09.03.13.05.46.18.93.35,1.4.51.07.02.15.05.22.07.41.14.83.27,1.25.39.07.02.14.04.21.06.08.02.16.04.24.06.27.07.53.14.8.21.16.04.33.08.49.12.3.07.59.14.89.2.11.02.22.05.33.08.03,0,.06.01.09.02.27.06.54.11.82.16.15.03.3.06.45.08.36.06.71.12,1.07.17.07,0,.13.02.2.03,0,0,0,0,.01,0,.42.06.84.11,1.26.16.09.01.18.02.27.03.33.04.67.07,1,.1,0,0,.02,0,.02,0,.15.01.29.02.44.03.27.02.55.04.82.06.18,0,.35.01.53.02.25.01.51.02.76.03.02,0,.04,0,.06,0,.14,0,.28,0,.43,0,.28,0,.55,0,.83,0,.18,0,.36,0,.54,0,.26,0,.52,0,.77-.01.05,0,.09,0,.14,0,.12,0,.24-.01.36-.02.3-.01.59-.03.89-.04.18-.01.36-.02.54-.04.28-.02.57-.04.85-.07.1,0,.2-.01.3-.02.07,0,.14-.02.21-.02.44-.05.88-.1,1.32-.16.07,0,.14-.02.22-.03.5-.07,1-.15,1.5-.24.05,0,.09-.01.14-.02.13-.02.26-.05.4-.08.23-.04.46-.09.69-.14.19-.04.38-.08.56-.12.22-.05.45-.1.67-.16.19-.05.37-.09.56-.14.22-.06.44-.11.66-.18.18-.05.37-.1.55-.16.22-.06.43-.13.64-.2.09-.03.19-.06.28-.09.07-.02.13-.05.2-.07.39-.13.77-.26,1.15-.4.08-.03.16-.06.24-.09.45-.17.89-.35,1.32-.54.11-.05.22-.1.33-.15.33-.15.66-.3.98-.46.12-.06.24-.12.36-.18.41-.21.82-.43,1.22-.66.11-.06.22-.13.32-.19.1-.06.19-.12.29-.18.16-.1.32-.2.48-.3.14-.09.28-.19.42-.29.15-.1.3-.21.45-.31.13-.1.26-.2.39-.3.14-.11.28-.21.41-.32.12-.1.25-.2.37-.3.13-.11.26-.22.38-.33.05-.05.11-.09.16-.14.1-.09.2-.19.3-.29.03-.03.07-.07.1-.1.19-.19.38-.38.55-.58.04-.05.08-.09.12-.14.15-.17.29-.34.43-.51.03-.04.06-.07.09-.11.01-.02.03-.03.04-.05.05-.06.09-.13.14-.19.13-.17.26-.34.37-.51.06-.09.12-.19.18-.28.1-.16.2-.31.29-.47.02-.04.05-.08.08-.13.04-.06.06-.13.1-.19.07-.13.14-.26.2-.4.05-.11.11-.22.16-.33.06-.13.12-.27.17-.4.02-.06.05-.12.08-.18.02-.05.03-.11.05-.16.05-.13.09-.25.13-.38.04-.12.07-.23.1-.35.03-.13.06-.26.09-.39.02-.07.04-.14.05-.21,0-.05.01-.09.02-.14.02-.13.04-.26.06-.4.02-.12.03-.23.04-.35.01-.13.02-.27.03-.4,0-.08.01-.16.02-.23,0-.08,0-.15,0-.23v-4.89c.01.16,0,.31,0,.47Z"/>
          </g>
          <path class="cls-26" d="M55.29,38.88c-10.37-5.99-27.12-5.99-37.42,0-10.3,5.98-10.25,15.69.12,21.67,10.37,5.99,27.12,5.99,37.42,0,10.3-5.98,10.24-15.69-.12-21.67ZM21.18,40.79c8.48-4.93,22.28-4.93,30.82,0,4.82,2.78,6.93,6.54,6.33,10.18t0,0c-.47,2.8-2.54,5.53-6.23,7.67-8.49,4.93-22.28,4.93-30.82,0-3.75-2.16-5.86-4.92-6.33-7.74h0c-.6-3.62,1.48-7.35,6.23-10.11Z"/>
          <g class="cls-18">
            <path class="cls-7" d="M64.21,71.73c0-.07.01-.14.02-.21.01-.08.02-.15.04-.23,0-.05.02-.1.03-.16.01-.05.02-.1.04-.15.02-.07.03-.14.05-.2.01-.04.02-.08.04-.12.02-.08.05-.15.08-.23.01-.03.02-.06.03-.09.04-.11.08-.21.13-.32,0-.01.01-.02.02-.04.04-.09.09-.19.13-.28.01-.03.03-.06.04-.09.04-.09.09-.17.14-.26,0-.02.02-.03.03-.05.06-.1.12-.2.18-.29.02-.03.04-.06.06-.08.05-.07.09-.14.14-.2.03-.04.05-.07.08-.11.04-.06.09-.11.13-.17.04-.05.07-.09.11-.14.04-.04.07-.08.11-.12.06-.07.13-.14.19-.2.04-.04.08-.08.12-.12.03-.03.06-.06.1-.09.05-.05.11-.1.16-.14.03-.03.07-.05.1-.08.06-.05.12-.09.18-.14.03-.02.06-.04.09-.06.09-.06.18-.12.27-.17.09-.05.18-.1.26-.14.02-.01.05-.02.07-.03.05-.02.1-.04.14-.06.07-.03.14-.05.2-.07.04-.01.09-.03.13-.04.04,0,.08-.02.12-.03.05,0,.1-.02.15-.02.03,0,.06,0,.09,0,.06,0,.12,0,.18,0,.01,0,.03,0,.04,0,.07,0,.14.01.21.03.02,0,.03,0,.05.01.05.01.11.03.16.05.02,0,.03.01.05.02.07.03.13.05.19.09l-11.5-6.68s-.01,0-.02,0c-.05-.03-.09-.05-.14-.07,0,0-.02,0-.03-.01-.02,0-.03-.01-.05-.02-.02,0-.05-.02-.07-.03-.03,0-.06-.01-.08-.02-.02,0-.03,0-.05-.01,0,0-.02,0-.03,0-.06,0-.11-.02-.17-.02,0,0,0,0-.01,0-.01,0-.03,0-.04,0-.05,0-.09,0-.14,0-.02,0-.03,0-.05,0-.03,0-.06,0-.09,0-.03,0-.05,0-.08,0-.02,0-.05.01-.07.02-.04,0-.08.02-.12.03-.02,0-.04,0-.06.01-.02,0-.04.02-.06.02-.07.02-.13.04-.2.07-.02,0-.05.01-.07.02-.02,0-.05.02-.07.03-.02.01-.05.02-.07.03-.09.04-.17.09-.26.14-.09.05-.18.11-.27.17-.03.02-.06.04-.09.06-.06.04-.12.09-.18.14-.03.03-.07.05-.1.08-.05.05-.11.09-.16.14-.03.03-.07.06-.1.09-.02.02-.04.04-.06.06-.02.02-.04.04-.06.07-.07.07-.13.13-.19.2-.02.02-.04.04-.06.07-.02.02-.03.04-.05.06-.04.04-.07.09-.11.14-.02.03-.05.06-.07.09-.02.02-.04.05-.06.08-.03.04-.05.07-.08.11-.02.03-.04.05-.06.07-.03.04-.06.09-.09.13-.02.03-.04.06-.06.08,0,.01-.02.02-.02.03-.05.08-.1.16-.15.24,0,0,0,.01,0,.02,0,.02-.02.03-.03.05-.03.06-.07.12-.1.17-.01.03-.03.06-.04.08-.01.03-.03.06-.04.09-.01.03-.03.05-.04.07-.03.07-.06.14-.09.2,0,.01-.01.02-.02.04,0,0,0,0,0,0-.04.09-.07.17-.11.26,0,.02-.01.03-.02.05-.01.03-.02.06-.03.09-.02.04-.03.09-.05.13-.01.03-.02.07-.03.1-.01.04-.02.08-.04.12,0,.02-.02.05-.02.07-.01.04-.02.09-.03.13-.01.05-.03.1-.04.15,0,.02,0,.03-.01.05,0,.04-.01.07-.02.11-.01.08-.03.15-.04.23,0,.02,0,.04-.01.06,0,.05,0,.1-.01.14,0,.03,0,.07,0,.1,0,.11-.01.21-.01.32,0,.91.32,1.54.84,1.84l11.5,6.68c-.52-.3-.84-.94-.84-1.84,0-.1,0-.21.01-.32,0-.03,0-.07.01-.1Z"/>
            <path class="cls-46" d="M67.05,67.19c1.59-.92,2.88-.18,2.88,1.64,0,1.82-1.28,4.05-2.86,4.96-1.59.92-2.88.18-2.88-1.64,0-1.82,1.28-4.04,2.86-4.96Z"/>
          </g>
          <g class="cls-18">
            <path class="cls-30" d="M85.14,85.08c.01-.11.02-.21.04-.32.02-.12.04-.24.06-.35.02-.08.03-.16.05-.24.02-.08.04-.15.06-.23.03-.11.05-.21.08-.31.02-.06.04-.12.06-.18.04-.12.08-.24.12-.35.02-.05.03-.1.05-.15.06-.16.13-.32.2-.48,0-.02.02-.04.03-.06.06-.14.13-.29.2-.43.02-.04.04-.09.07-.13.07-.13.14-.27.22-.4.01-.03.03-.05.04-.08.09-.15.18-.3.28-.45.03-.04.06-.09.09-.13.07-.11.14-.21.22-.31.04-.06.08-.11.12-.17.07-.09.13-.17.2-.25.06-.07.11-.14.17-.21.06-.06.11-.13.17-.19.1-.11.19-.21.29-.31.06-.06.12-.13.19-.19.05-.05.1-.09.15-.14.08-.07.17-.15.25-.22.05-.04.1-.08.15-.12.09-.07.18-.14.28-.21.04-.03.09-.07.13-.1.14-.1.28-.19.42-.27.14-.08.27-.15.41-.21.03-.02.07-.03.1-.05.07-.03.15-.06.22-.09.11-.04.21-.08.31-.11.07-.02.13-.04.2-.05.06-.01.12-.03.18-.04.08-.01.16-.03.23-.04.04,0,.09-.01.13-.01.1,0,.19,0,.28,0,.02,0,.04,0,.06,0,.11,0,.22.02.33.04.03,0,.05.01.08.02.08.02.16.04.24.07.02,0,.05.02.07.03.1.04.2.08.29.14l-23.46-13.54s-.02,0-.02-.01c-.07-.04-.15-.08-.22-.11-.01,0-.03,0-.04-.02-.02,0-.05-.02-.08-.03-.04-.01-.08-.03-.11-.04-.04-.01-.09-.02-.13-.03-.03,0-.05-.01-.08-.02-.01,0-.03,0-.04,0-.09-.02-.18-.03-.27-.03,0,0-.01,0-.02,0-.02,0-.04,0-.06,0-.07,0-.14,0-.21,0-.02,0-.05,0-.07,0-.04,0-.09,0-.13.01-.04,0-.08,0-.12.01-.04,0-.07.02-.11.02-.06.01-.12.02-.18.04-.03,0-.06.01-.1.02-.03,0-.07.02-.1.03-.1.03-.21.07-.31.11-.04.01-.07.02-.11.04-.04.01-.07.03-.11.05-.03.02-.07.03-.1.05-.13.06-.27.13-.4.21-.14.08-.28.17-.42.27-.04.03-.09.06-.13.1-.09.07-.19.14-.28.21-.05.04-.1.08-.15.12-.08.07-.17.14-.25.22-.05.05-.1.09-.15.14-.03.03-.06.06-.09.09-.03.03-.06.07-.09.1-.1.1-.2.21-.29.31-.03.03-.06.07-.09.1-.03.03-.05.06-.07.09-.06.07-.12.14-.17.21-.04.05-.08.09-.11.14-.03.04-.06.08-.09.12-.04.05-.08.11-.12.17-.03.04-.06.08-.08.11-.05.07-.09.13-.13.2-.03.04-.06.08-.09.13-.01.02-.02.04-.04.05-.08.12-.15.25-.23.37,0,0,0,.02-.01.03-.01.03-.03.05-.04.08-.05.09-.1.18-.15.27-.02.04-.04.09-.06.13-.02.04-.04.09-.07.13-.02.04-.04.08-.06.12-.05.1-.1.21-.14.31,0,.02-.02.04-.03.06,0,0,0,0,0,.01-.06.13-.11.26-.16.4,0,.02-.02.05-.03.07-.02.05-.03.1-.05.15-.02.07-.05.13-.07.2-.02.05-.03.1-.05.16-.02.06-.04.12-.06.18-.01.04-.02.07-.03.11-.02.07-.03.14-.05.2-.02.08-.04.15-.06.23,0,.03-.01.05-.02.08-.01.05-.02.11-.03.16-.02.12-.04.24-.06.35,0,.03-.01.06-.02.1,0,.07-.01.15-.02.22,0,.05-.01.1-.02.16-.01.16-.02.33-.02.49,0,1.39.5,2.37,1.29,2.83l23.46,13.54c-.79-.46-1.28-1.44-1.29-2.83,0-.16,0-.32.02-.49,0-.05.01-.1.02-.16Z"/>
            <path class="cls-8" d="M89.51,78.1c2.44-1.41,4.42-.28,4.43,2.53,0,2.8-1.96,6.22-4.4,7.63-2.44,1.41-4.42.28-4.43-2.53,0-2.8,1.96-6.22,4.4-7.63Z"/>
          </g>
          <path class="cls-41" d="M58.32,51.13s0,0,0,0c-.47,2.8-2.54,5.53-6.23,7.67-8.49,4.93-22.28,4.93-30.82,0-3.75-2.16-5.86-4.92-6.33-7.74h0c.47-2.81,2.54-5.54,6.23-7.68,8.48-4.93,22.28-4.93,30.82,0,3.75,2.16,5.86,4.92,6.33,7.75Z"/>
        </g>
      </g>
      <g>
        <path class="cls-38" d="M88.68,30.27l-4.35-2.61c-.36-.22-.68-.67-.8-1.13l-1.43-5.54c-.24-.91-1.1-1.51-1.49-1.15l-.56.24h0c.42-.22,1.2.36,1.42,1.22l1.43,5.54c.12.46.44.91.8,1.13l4.35,2.61c.76.45,1.1,1.68.63,2.01h0s.57-.27.57-.27c.56-.26.22-1.57-.57-2.04Z"/>
        <path class="cls-22" d="M81.47,21.29l1.43,5.54c.12.46.44.91.8,1.13l4.35,2.61c.82.49,1.16,1.88.5,2.07l-3.47,1.01c-.29.08-.41.44-.3.9l1.26,5.51c.24,1.04-.65,1.26-1.32.34l-3.57-4.91c-.3-.41-.69-.63-.99-.57l-3.57.79c-.67.15-1.56-1.1-1.32-1.86l1.26-4.05c.1-.34-.02-.84-.3-1.25l-3.47-5.02c-.65-.94-.31-1.94.5-1.49l4.35,2.41c.36.2.68.12.8-.2l1.43-3.89c.27-.73,1.36-.1,1.63.94Z"/>
      </g>
      <g>
        <path class="cls-38" d="M88.68,10.54l-4.35-2.61c-.36-.22-.68-.67-.8-1.13l-1.43-5.54c-.24-.91-1.1-1.51-1.49-1.15l-.56.24h0c.42-.22,1.2.36,1.42,1.22l1.43,5.54c.12.46.44.91.8,1.13l4.35,2.61c.76.45,1.1,1.68.63,2.01h0s.57-.27.57-.27c.56-.26.22-1.57-.57-2.04Z"/>
        <path class="cls-3" d="M81.47,1.56l1.43,5.54c.12.46.44.91.8,1.13l4.35,2.61c.82.49,1.16,1.88.5,2.07l-3.47,1.01c-.29.08-.41.44-.3.9l1.26,5.51c.24,1.04-.65,1.26-1.32.34l-3.57-4.91c-.3-.41-.69-.63-.99-.57l-3.57.79c-.67.15-1.56-1.1-1.32-1.86l1.26-4.05c.1-.34-.02-.84-.3-1.25l-3.47-5.02c-.65-.94-.31-1.94.5-1.49l4.35,2.41c.36.2.68.12.8-.2l1.43-3.89c.27-.73,1.36-.1,1.63.94Z"/>
      </g>
      <g>
        <path class="cls-38" d="M108.96,40.38l-4.35-2.61c-.36-.22-.68-.67-.8-1.13l-1.43-5.54c-.24-.91-1.1-1.51-1.49-1.15l-.56.24h0c.42-.22,1.2.36,1.42,1.22l1.43,5.54c.12.46.44.91.8,1.13l4.35,2.61c.76.45,1.1,1.68.63,2.01h0s.57-.27.57-.27c.56-.26.22-1.57-.57-2.04Z"/>
        <path class="cls-42" d="M101.75,31.41l1.43,5.54c.12.46.44.91.8,1.13l4.35,2.61c.82.49,1.16,1.88.5,2.07l-3.47,1.01c-.29.08-.41.44-.3.9l1.26,5.51c.24,1.04-.65,1.26-1.32.34l-3.57-4.91c-.3-.41-.69-.63-.99-.57l-3.57.79c-.67.15-1.56-1.1-1.32-1.86l1.26-4.05c.1-.34-.02-.84-.3-1.25l-3.47-5.02c-.65-.94-.31-1.94.5-1.49l4.35,2.41c.36.2.68.12.8-.2l1.43-3.89c.27-.73,1.36-.1,1.63.94Z"/>
      </g>
      <g>
        <path class="cls-38" d="M67.49,19.92l-4.35-2.61c-.36-.22-.68-.67-.8-1.13l-1.43-5.54c-.24-.91-1.1-1.51-1.49-1.15l-.56.24h0c.42-.22,1.2.36,1.42,1.22l1.43,5.54c.12.46.44.91.8,1.13l4.35,2.61c.76.45,1.1,1.68.63,2.01h0s.57-.27.57-.27c.56-.26.22-1.57-.57-2.04Z"/>
        <path class="cls-24" d="M60.28,10.94l1.43,5.54c.12.46.44.91.8,1.13l4.35,2.61c.82.49,1.16,1.88.5,2.07l-3.47,1.01c-.29.08-.41.44-.3.9l1.26,5.51c.24,1.04-.65,1.26-1.32.34l-3.57-4.91c-.3-.41-.69-.63-.99-.57l-3.57.79c-.67.15-1.56-1.1-1.32-1.86l1.26-4.05c.1-.34-.02-.84-.3-1.25l-3.47-5.02c-.65-.94-.31-1.94.5-1.49l4.35,2.41c.36.2.68.12.8-.2l1.43-3.89c.27-.73,1.36-.1,1.63.94Z"/>
      </g>
    </g>
  </g>
</svg>